<svg
        xmlns="http://www.w3.org/2000/svg"
        width="280"
        height="280"
        viewBox="0 0 280 280"
        fill="none"
>
    <mask
            id="mask0_3264_19099"
            style="mask-type:alpha"
            maskUnits="userSpaceOnUse"
            x="0"
            y="0"
            width="280"
            height="280"
    >
        <rect width="280" height="280" fill="#D9D9D9" />
    </mask>
    <g mask="url(#mask0_3264_19099)">
        <path
                d="M134.414 84.7016L67.1516 170.935C63.4116 175.73 66.8282 182.728 72.9092 182.728L207.433 182.728C213.514 182.728 216.931 175.73 213.191 170.935L145.929 84.7016C143.005 80.9536 137.337 80.9536 134.414 84.7016Z"
                fill="#35C89F"
        />
        <circle cx="139.802" cy="51.4662" r="30.4662" fill="#5C62F9" />
        <circle cx="239.03" cy="94.7796" r="12.889" fill="#F97F88" />
        <circle cx="40.5999" cy="94.7796" r="12.889" fill="#F97F88" />
        <circle cx="140.889" cy="202.944" r="12.889" fill="#F97F88" />
        <path
                d="M236.755 108.874L208.086 145.629C206.492 147.673 207.948 150.656 210.54 150.656L267.878 150.656C270.47 150.656 271.926 147.673 270.332 145.629L241.663 108.874C240.417 107.276 238.001 107.276 236.755 108.874Z"
                fill="#5C62F9"
        />
        <path
                d="M137.903 217.042L109.234 253.797C107.64 255.841 109.096 258.824 111.688 258.824L169.027 258.824C171.619 258.824 173.075 255.841 171.481 253.797L142.812 217.042C141.566 215.444 139.15 215.444 137.903 217.042Z"
                fill="#5C62F9"
        />
        <path
                d="M38.3332 108.874L9.66401 145.629C8.06991 147.673 9.52617 150.656 12.1181 150.656L69.4563 150.656C72.0482 150.656 73.5045 147.673 71.9104 145.629L43.2413 108.874C41.9952 107.276 39.5792 107.276 38.3332 108.874Z"
                fill="#5C62F9"
        />
    </g>
</svg>
