<svg
        xmlns="http://www.w3.org/2000/svg"
        width="280"
        height="280"
        viewBox="0 0 280 280"
        fill="none"
>
    <mask
            id="mask0_3264_19120"
            style="mask-type:alpha"
            maskUnits="userSpaceOnUse"
            x="0"
            y="0"
            width="280"
            height="280"
    >
        <rect width="280" height="280" fill="#D9D9D9" />
    </mask>
    <g mask="url(#mask0_3264_19120)">
        <rect
                x="19"
                y="114.641"
                width="165.791"
                height="165.791"
                rx="10.4722"
                fill="#FFCC00"
        />
        <path
                d="M156.595 71.8668C148.436 102.317 117.137 120.387 86.6875 112.228C56.2376 104.069 38.1673 72.7702 46.3263 42.3203C54.4853 11.8704 85.784 -6.19993 116.234 1.9591C146.684 10.1181 164.754 41.4169 156.595 71.8668Z"
                fill="#5C62F9"
        />
        <path
                d="M258.773 243.9C251.814 269.87 225.12 285.282 199.149 278.324C173.179 271.365 157.767 244.671 164.726 218.7C171.684 192.73 198.379 177.318 224.349 184.276C250.32 191.235 265.732 217.93 258.773 243.9Z"
                fill="#F97F88"
        />
        <path
                fill-rule="evenodd"
                clip-rule="evenodd"
                d="M204.81 186.116C219.525 190.059 234.65 181.327 238.593 166.612C242.536 151.897 233.803 136.772 219.089 132.83C204.374 128.887 189.249 137.619 185.306 152.334C181.363 167.049 190.096 182.174 204.81 186.116ZM208.97 171.056C215.367 172.77 221.943 168.973 223.657 162.576C225.371 156.178 221.575 149.602 215.177 147.888C208.78 146.174 202.204 149.971 200.49 156.368C198.776 162.766 202.572 169.341 208.97 171.056Z"
                fill="#5C62F9"
        />
        <path
                d="M213.411 202.196L232.274 178.012C233.323 176.667 232.365 174.705 230.659 174.705L192.932 174.705C191.227 174.705 190.269 176.667 191.318 178.012L210.181 202.196C211.001 203.247 212.591 203.247 213.411 202.196Z"
                fill="#5C62F9"
        />
    </g>
</svg>
