<svg
        xmlns="http://www.w3.org/2000/svg"
        width="280"
        height="280"
        viewBox="0 0 280 280"
        fill="none"
>
    <rect
            x="16.0078"
            y="145.969"
            width="115.634"
            height="115.634"
            rx="5.74389"
            fill="#5C62F9"
    />
    <rect
            x="147.375"
            y="145.969"
            width="115.634"
            height="115.634"
            rx="5.74389"
            fill="#FFCC00"
    />
    <path
            d="M246.078 206.329L209.159 235.126C207.106 236.727 204.11 235.264 204.11 232.661L204.11 175.068C204.11 172.464 207.106 171.002 209.159 172.603L246.078 201.399C247.682 202.651 247.682 205.078 246.078 206.329Z"
            fill="#35C89F"
    />
    <path
            fill-rule="evenodd"
            clip-rule="evenodd"
            d="M73.1804 182.494C93.0328 182.494 109.126 166.4 109.126 146.548C109.126 126.695 93.0328 110.602 73.1804 110.602C53.3279 110.602 37.2344 126.695 37.2344 146.548C37.2344 166.4 53.3279 182.494 73.1804 182.494ZM73.1858 167.356C84.6793 167.356 93.9967 158.039 93.9967 146.545C93.9967 135.052 84.6793 125.734 73.1858 125.734C61.6923 125.734 52.375 135.052 52.375 146.545C52.375 158.039 61.6923 167.356 73.1858 167.356Z"
            fill="#FFCC00"
    />
    <circle cx="73.1982" cy="106.198" r="8.19821" fill="#FFCC00" />
    <circle cx="73.1982" cy="185.675" r="8.19821" fill="#FFCC00" />
    <circle
            cx="32.8388"
            cy="146.56"
            r="8.19821"
            transform="rotate(-90 32.8388 146.56)"
            fill="#FFCC00"
    />
    <circle
            cx="113.558"
            cy="146.56"
            r="8.19821"
            transform="rotate(-90 113.558 146.56)"
            fill="#FFCC00"
    />
    <circle
            cx="45.7734"
            cy="173.976"
            r="8.19821"
            transform="rotate(-135 45.7734 173.976)"
            fill="#FFCC00"
    />
    <circle
            cx="100.633"
            cy="117.875"
            r="8.19821"
            transform="rotate(-135 100.633 117.875)"
            fill="#FFCC00"
    />
    <circle
            cx="101.89"
            cy="175.227"
            r="8.19821"
            transform="rotate(135 101.89 175.227)"
            fill="#FFCC00"
    />
    <circle
            cx="44.4997"
            cy="119.125"
            r="8.19821"
            transform="rotate(135 44.4997 119.125)"
            fill="#FFCC00"
    />
    <path
            d="M197.734 205.538L172.81 224.979C171.424 226.06 169.401 225.073 169.401 223.315L169.401 184.433C169.401 182.675 171.424 181.687 172.81 182.768L197.734 202.21C198.818 203.055 198.818 204.693 197.734 205.538Z"
            fill="#35C89F"
    />
    <circle cx="204.356" cy="67.4263" r="41.3325" fill="#FFCC00" />
    <path
            d="M184.43 94.7986C184.43 93.9519 185.116 93.2656 185.963 93.2656H222.753C223.6 93.2656 224.286 93.9519 224.286 94.7986V113.194C224.286 124.2 215.364 133.122 204.358 133.122C193.352 133.122 184.43 124.2 184.43 113.194V94.7986Z"
            fill="#FFCC00"
    />
    <circle cx="204.352" cy="67.4303" r="26.5709" fill="#F97F88" />
    <rect
            x="200.656"
            y="1.00391"
            width="7.38081"
            height="18.452"
            rx="3.6904"
            fill="#FFCC00"
    />
    <rect
            x="236.031"
            y="6.28906"
            width="7.38081"
            height="18.452"
            rx="3.6904"
            transform="rotate(30 236.031 6.28906)"
            fill="#FFCC00"
    />
    <rect
            width="7.38081"
            height="18.452"
            rx="3.6904"
            transform="matrix(-0.866025 0.5 0.5 0.866025 173.094 6.28906)"
            fill="#FFCC00"
    />
</svg>
