<svg
        xmlns="http://www.w3.org/2000/svg"
        width="280"
        height="280"
        viewBox="0 0 280 280"
        fill="none"
>
    <mask
            id="mask0_3264_19110"
            style="maskType: 'alpha'"
    maskUnits="userSpaceOnUse"
    x="0"
    y="0"
    width="280"
    height="280"
    >
    <rect width="280" height="280" fill="#D9D9D9" />
</mask>
<g mask="url(#mask0_3264_19110)">
<rect
        x="65.9219"
        y="133.137"
        width="67.552"
        height="20.8082"
        rx="8.31612"
        transform="rotate(-51.8309 65.9219 133.137)"
        fill="#5C62F9"
/>
<path
        d="M131.518 109.471L32.2981 236.676C26.7811 243.749 31.821 254.072 40.7912 254.072L239.231 254.072C248.202 254.072 253.242 243.749 247.725 236.676L148.505 109.471C144.192 103.942 135.831 103.942 131.518 109.471Z"
        fill="#F97F88"
/>
<path
        d="M135.726 204.132L83.6743 270.865C80.7801 274.576 83.4241 279.991 88.1299 279.991L192.233 279.991C196.939 279.991 199.583 274.576 196.689 270.865L144.637 204.132C142.375 201.232 137.988 201.232 135.726 204.132Z"
        fill="#35C89F"
/>
<path
        fill-rule="evenodd"
        clip-rule="evenodd"
        d="M139.986 104.707C168.9 104.707 192.34 81.2674 192.34 52.3534C192.34 23.4394 168.9 0 139.986 0C111.072 0 87.6328 23.4394 87.6328 52.3534C87.6328 81.2674 111.072 104.707 139.986 104.707ZM139.804 89.7324C160.259 89.7324 176.842 73.1499 176.842 52.6943C176.842 32.2388 160.259 15.6562 139.804 15.6562C119.348 15.6562 102.766 32.2388 102.766 52.6943C102.766 73.1499 119.348 89.7324 139.804 89.7324Z"
        fill="#5C62F9"
/>
</g>
        </svg>
