<svg
        xmlns="http://www.w3.org/2000/svg"
        width="40"
        height="40"
        viewBox="0 0 40 40"
        fill="none"
>
    <rect
            x="29.3809"
            y="5.30859"
            width="29.3803"
            height="29.3803"
            rx="4.89672"
            transform="rotate(90 29.3809 5.30859)"
            fill="#F97F88"
    />
    <path
            d="M29.5945 31.0181C23.8476 31.0181 19.1889 26.3594 19.1889 20.6126C19.1889 14.8657 23.8476 10.207 29.5945 10.207C35.3413 10.207 40 14.8657 40 20.6126C40 26.3594 35.3413 31.0181 29.5945 31.0181Z"
            fill="#5C62F9"
    />
    <mask
            id="mask0_4893_135261"
            style="mask-type:alpha"
            maskUnits="userSpaceOnUse"
            x="18"
            y="9"
            width="12"
            height="23"
    >
        <path d="M18 9H29.3796V32H18V9Z" fill="#D9D9D9" />
    </mask>
    <g mask="url(#mask0_4893_135261)">
        <path
                d="M29.5945 31.0181C23.8476 31.0181 19.1889 26.3594 19.1889 20.6126C19.1889 14.8657 23.8476 10.207 29.5945 10.207C35.3413 10.207 40 14.8657 40 20.6126C40 26.3594 35.3413 31.0181 29.5945 31.0181Z"
                fill="#FFCC00"
        />
    </g>
</svg>
